<svg id="osmdSvgPage1" width="1280" height="316" viewBox="0 0 1280 316">
  <path stroke-width="1" fill="none" stroke="black" stroke-dasharray="none" d="M125.537109375 184L462.372008575 184"/>
  <rect stroke-width="0.3" fill="black" stroke="black" stroke-dasharray="none" x="462.372008575" y="163.5" width="1" height="41"/>
  <path stroke-width="0.3" fill="black" stroke="none" stroke-dasharray="none" d="M130.537109375 184 130.537109375 184L130.537109375 174.0064 132.725909375 174.0064 134.943509375 174.0064 134.943509375 184 134.943509375 194.0224 132.725909375 194.0224 130.537109375 194.0224 130.537109375 184M139.407509375 184.0288L139.407509375 174.0064 141.653909375 174.0064 143.900309375 174.0064 143.900309375 184.0288 143.900309375 194.0224 141.653909375 194.0224 139.407509375 194.0224 139.407509375 184.0288"/>
  <path stroke-width="0.3" fill="black" stroke="none" stroke-dasharray="none" d="M171.537109375 184 176.548309375 165.6544C176.577109375 165.6256 176.980309375 165.6256 178.218709375 165.6256 178.593109375 165.6256 178.996309375 165.6256 179.514709375 165.6256L182.423509375 165.6256 182.509909375 165.712C182.653909375 165.79840000000002 182.740309375 165.9424 182.740309375 166.0576 182.740309375 166.2304 182.653909375 166.3456 182.538709375 166.4608 182.509909375 166.5472 182.25070937499999 166.7776 182.077909375 167.0368L180.551509375 168.7936 178.593109375 171.0112 177.556309375 172.192 176.001109375 173.9776 173.956309375 176.3104C173.610709375 176.7424 173.236309375 177.088 173.236309375 177.088 173.236309375 177.088 173.236309375 177.088 173.236309375 177.088 173.236309375 177.1456 173.495509375 177.1456 175.885909375 177.1456L178.506709375 177.1456 178.506709375 175.2736C178.506709375 173.3728 178.506709375 173.344 178.535509375 173.3152 178.593109375 173.2288 178.852309375 172.912 179.86030937499999 171.7312L180.263509375 171.2992 180.666709375 170.8672 181.271509375 170.0896 181.905109375 169.4272 182.221909375 169.024C182.337109375 168.8512 182.509909375 168.8224 182.653909375 168.8224 182.826709375 168.8224 182.970709375 168.9088 183.057109375 169.0528 183.085909375 169.1392 183.085909375 169.1968 183.085909375 171.328 183.085909375 171.8176 183.085909375 172.4224 183.085909375 173.1424L183.085909375 177.1456 183.805909375 177.1456C184.468309375 177.1456 184.497109375 177.1456 184.583509375 177.1744 184.813909375 177.2608 184.929109375 177.4912 184.929109375 177.7504 184.929109375 177.8944 184.900309375 178.0672 184.785109375 178.1824 184.612309375 178.3264 184.583509375 178.3264 183.805909375 178.3264L183.085909375 178.3264 183.085909375 178.816C183.114709375 180.2848 183.402709375 180.8608 184.525909375 181.4656 184.929109375 181.6672 185.015509375 181.7248 185.015509375 182.0128 185.015509375 182.2144 184.95790937499999 182.3008 184.813909375 182.416L184.727509375 182.4448 180.781909375 182.4448 176.865109375 182.4448 176.778709375 182.416C176.605909375 182.3008 176.577109375 182.2144 176.577109375 182.0128 176.577109375 181.7248 176.605909375 181.6672 177.037909375 181.4656 178.161109375 180.8608 178.449109375 180.2848 178.449109375 178.816L178.449109375 178.3264 175.137109375 178.3264C174.532309375 178.38400000000001 174.042709375 178.38400000000001 173.639509375 178.38400000000001 171.825109375 178.38400000000001 171.796309375 178.3264 171.767509375 178.3264 171.594709375 178.2688 171.537109375 178.096 171.537109375 177.8944 171.537109375 177.8944 171.537109375 177.8944 171.537109375 177.8944 171.537109375 177.6928 171.537109375 177.6928 172.113109375 177.0304 174.532309375 174.0928 176.231509375 169.8304 176.231509375 166.43200000000002 176.231509375 165.9136 176.317909375 165.7408 176.548309375 165.6544M178.276309375 184.0288L178.305109375 184.0288 178.218709375 184.0288 178.276309375 184.0288M178.276309375 164.6176L178.305109375 164.6176 178.218709375 164.6176 178.276309375 164.6176"/>
  <path stroke-width="0.3" fill="black" stroke="none" stroke-dasharray="none" d="M171.537109375 204 176.548309375 185.6544C176.577109375 185.6256 176.980309375 185.6256 178.218709375 185.6256 178.593109375 185.6256 178.996309375 185.6256 179.514709375 185.6256L182.423509375 185.6256 182.509909375 185.712C182.653909375 185.79840000000002 182.740309375 185.9424 182.740309375 186.0576 182.740309375 186.2304 182.653909375 186.3456 182.538709375 186.4608 182.509909375 186.5472 182.25070937499999 186.7776 182.077909375 187.0368L180.551509375 188.7936 178.593109375 191.0112 177.556309375 192.192 176.001109375 193.9776 173.956309375 196.3104C173.610709375 196.7424 173.236309375 197.088 173.236309375 197.088 173.236309375 197.088 173.236309375 197.088 173.236309375 197.088 173.236309375 197.1456 173.495509375 197.1456 175.885909375 197.1456L178.506709375 197.1456 178.506709375 195.2736C178.506709375 193.3728 178.506709375 193.344 178.535509375 193.3152 178.593109375 193.2288 178.852309375 192.912 179.86030937499999 191.7312L180.263509375 191.2992 180.666709375 190.8672 181.271509375 190.0896 181.905109375 189.4272 182.221909375 189.024C182.337109375 188.8512 182.509909375 188.8224 182.653909375 188.8224 182.826709375 188.8224 182.970709375 188.9088 183.057109375 189.0528 183.085909375 189.1392 183.085909375 189.1968 183.085909375 191.328 183.085909375 191.8176 183.085909375 192.4224 183.085909375 193.1424L183.085909375 197.1456 183.805909375 197.1456C184.468309375 197.1456 184.497109375 197.1456 184.583509375 197.1744 184.813909375 197.2608 184.929109375 197.4912 184.929109375 197.7504 184.929109375 197.8944 184.900309375 198.0672 184.785109375 198.1824 184.612309375 198.3264 184.583509375 198.3264 183.805909375 198.3264L183.085909375 198.3264 183.085909375 198.816C183.114709375 200.2848 183.402709375 200.8608 184.525909375 201.4656 184.929109375 201.6672 185.015509375 201.7248 185.015509375 202.0128 185.015509375 202.2144 184.95790937499999 202.3008 184.813909375 202.416L184.727509375 202.4448 180.781909375 202.4448 176.865109375 202.4448 176.778709375 202.416C176.605909375 202.3008 176.577109375 202.2144 176.577109375 202.0128 176.577109375 201.7248 176.605909375 201.6672 177.037909375 201.4656 178.161109375 200.8608 178.449109375 200.2848 178.449109375 198.816L178.449109375 198.3264 175.137109375 198.3264C174.532309375 198.38400000000001 174.042709375 198.38400000000001 173.639509375 198.38400000000001 171.825109375 198.38400000000001 171.796309375 198.3264 171.767509375 198.3264 171.594709375 198.2688 171.537109375 198.096 171.537109375 197.8944 171.537109375 197.8944 171.537109375 197.8944 171.537109375 197.8944 171.537109375 197.6928 171.537109375 197.6928 172.113109375 197.0304 174.532309375 194.0928 176.231509375 189.8304 176.231509375 186.43200000000002 176.231509375 185.9136 176.317909375 185.7408 176.548309375 185.6544M178.276309375 204.0288L178.305109375 204.0288 178.218709375 204.0288 178.276309375 204.0288M178.276309375 184.6176L178.305109375 184.6176 178.218709375 184.6176 178.276309375 184.6176"/>
  <g class="vf-stavenote" id="vf-auto15446">
    <g class="vf-note" pointer-events="bounding-box">
      <g class="vf-stem" pointer-events="bounding-box">
        <path stroke-width="1.5" fill="none" stroke="#000000" stroke-dasharray="none" d="M208.28374937499999 184L208.28374937499999 149"/>
      </g>
      <g class="vf-notehead" pointer-events="bounding-box">
        <path stroke-width="0.3" fill="#000000" stroke="none" stroke-dasharray="none" d="M197.015509375 184 204.37246937499998 178.77712C204.484789375 178.77712 204.65326937499998 178.77712 204.681349375 178.77712 204.681349375 178.77712 204.70942937499998 178.77712 204.70942937499998 178.77712 204.70942937499998 178.77712 204.877909375 178.77712 205.018309375 178.77712 207.545509375 178.91752 209.03374937499999 180.57424 209.03374937499999 182.65216 209.03374937499999 183.66304 208.69678937499998 184.81432 207.85438937499998 185.90944 206.25382937499998 188.0716 203.642389375 189.25096 201.36790937499998 189.25096 199.598869375 189.25096 198.08254937499999 188.54896 197.352469375 187.11688 197.127829375 186.55528 197.015509375 186.02176 197.015509375 185.43208 197.015509375 182.37136 200.441269375 178.97368 204.37246937499998 178.77712"/>
      </g>
    </g>
    <g class="vf-modifiers"/>
  </g>
  <g class="vf-stavenote" id="vf-auto15454">
    <g class="vf-note" pointer-events="bounding-box">
      <g class="vf-notehead" pointer-events="bounding-box">
        <path stroke-width="0.3" fill="#000000" stroke="none" stroke-dasharray="none" d="M246.52622937499999 184 247.902149375 169.8196C247.93022937499998 169.8196 247.958309375 169.79152 248.01446937499998 169.79152 248.15486937499998 169.79152 248.267189375 169.87576 248.49182937499998 170.07232 248.57606937499997 170.18464 248.71646937499997 170.29696 248.800709375 170.3812L249.221909375 170.71816 249.643109375 171.11128 249.95198937499998 171.39208 250.288949375 171.70096 251.63678937499998 172.88032 253.686629375 174.7336C254.725589375 175.63216 254.725589375 175.63216 254.725589375 175.82872L254.725589375 175.8568 254.725589375 176.02528 254.472869375 176.4184C253.09694937499998 178.46824 252.39494937499998 180.82695999999999 252.39494937499998 182.98912 252.39494937499998 185.23552 253.125029375 187.34152 254.613269375 188.7736 254.809829375 189.02632 254.92214937499998 189.08248 254.92214937499998 189.16672 254.950229375 189.25096 254.950229375 189.27904 254.950229375 189.36328 254.950229375 189.58792 254.78174937499998 189.78448 254.529029375 189.78448 254.472869375 189.78448 254.41670937499998 189.78448 254.388629375 189.78448 254.107829375 189.67216 253.79894937499998 189.64408 253.46198937499997 189.64408 252.788069375 189.64408 252.05798937499998 189.84064 251.468309375 190.23376 250.345109375 190.99192 249.727349375 192.19936 249.727349375 193.5472 249.727349375 194.78272 250.288949375 196.15864 251.35598937499998 197.22568 251.63678937499998 197.50648 251.72102937499997 197.67496 251.72102937499997 197.81536 251.72102937499997 197.92768 251.664869375 198.01192 251.608709375 198.09616 251.468309375 198.1804 251.41214937499998 198.26463999999999 251.327909375 198.26463999999999 251.187509375 198.26463999999999 251.01902937499997 198.12424 250.79438937499998 197.98384 248.35142937499998 196.01824 246.863189375 193.88416 246.52622937499999 191.97472 246.52622937499999 191.80624 246.52622937499999 191.5816 246.52622937499999 191.3008 246.52622937499999 191.07616 246.52622937499999 190.79536 246.55430937499997 190.68304 246.97550937499997 188.97016 248.57606937499997 187.9312 250.682069375 187.9312 251.21558937499998 187.9312 251.83334937499998 187.98736 252.39494937499998 188.15584 252.47918937499998 188.15584 252.563429375 188.18392 252.563429375 188.18392 252.563429375 188.18392 252.563429375 188.18392 252.563429375 188.18392L252.563429375 188.18392C252.563429375 188.15584 252.39494937499998 187.98736 252.170309375 187.81888L250.93478937499998 186.72376 249.221909375 185.15128C247.11590937499997 183.32608 247.003589375 183.18568 247.003589375 183.04528 247.003589375 182.98912 247.003589375 182.98912 247.003589375 182.96104 247.003589375 182.96104 247.003589375 182.93296 247.003589375 182.93296 247.003589375 182.76448 247.003589375 182.76448 247.22822937499998 182.42752 248.800709375 180.32152 249.61502937499998 177.85048 249.61502937499998 175.63216 249.61502937499998 173.69464 248.99726937499997 171.89752 247.817909375 170.69008 247.64942937499998 170.5216 247.59326937499998 170.32504 247.59326937499998 170.21272 247.59326937499998 170.01616 247.705589375 169.90384 247.902149375 169.8196"/>
      </g>
    </g>
    <g class="vf-modifiers"/>
  </g>
  <g class="vf-stavenote" id="vf-auto15460">
    <g class="vf-note" pointer-events="bounding-box">
      <g class="vf-notehead" pointer-events="bounding-box">
        <path stroke-width="0.3" fill="#000000" stroke="none" stroke-dasharray="none" d="M292.442709375 184 299.799669375 178.77712C299.911989375 178.77712 300.080469375 178.77712 300.108549375 178.77712 300.108549375 178.77712 300.136629375 178.77712 300.136629375 178.77712 300.136629375 178.77712 300.305109375 178.77712 300.445509375 178.77712 302.972709375 178.91752 304.460949375 180.57424 304.460949375 182.65216 304.460949375 183.66304 304.123989375 184.81432 303.281589375 185.90944 301.681029375 188.0716 299.06958937499996 189.25096 296.795109375 189.25096 295.026069375 189.25096 293.509749375 188.54896 292.77966937499997 187.11688 292.555029375 186.55528 292.442709375 186.02176 292.442709375 185.43208 292.442709375 182.37136 295.868469375 178.97368 299.799669375 178.77712"/>
      </g>
    </g>
    <g class="vf-modifiers"/>
  </g>
  <g class="vf-stavenote" id="vf-auto15470">
    <g class="vf-note" pointer-events="bounding-box">
      <g class="vf-notehead" pointer-events="bounding-box">
        <path stroke-width="0.3" fill="#000000" stroke="none" stroke-dasharray="none" d="M326.207189375 184 333.564149375 178.77712C333.676469375 178.77712 333.844949375 178.77712 333.873029375 178.77712 333.873029375 178.77712 333.901109375 178.77712 333.901109375 178.77712 333.901109375 178.77712 334.06958937499996 178.77712 334.20998937499996 178.77712 336.73718937499996 178.91752 338.225429375 180.57424 338.225429375 182.65216 338.225429375 183.66304 337.888469375 184.81432 337.046069375 185.90944 335.445509375 188.0716 332.834069375 189.25096 330.559589375 189.25096 328.790549375 189.25096 327.274229375 188.54896 326.54414937499996 187.11688 326.319509375 186.55528 326.207189375 186.02176 326.207189375 185.43208 326.207189375 182.37136 329.632949375 178.97368 333.564149375 178.77712"/>
      </g>
    </g>
    <g class="vf-modifiers"/>
  </g>
  <g class="vf-stavenote" id="vf-auto15480">
    <g class="vf-note" pointer-events="bounding-box">
      <g class="vf-notehead" pointer-events="bounding-box">
        <path stroke-width="0.3" fill="#000000" stroke="none" stroke-dasharray="none" d="M359.97166937500003 184 367.32862937500005 178.77712C367.44094937500006 178.77712 367.60942937500005 178.77712 367.63750937500004 178.77712 367.63750937500004 178.77712 367.665589375 178.77712 367.665589375 178.77712 367.665589375 178.77712 367.834069375 178.77712 367.974469375 178.77712 370.501669375 178.91752 371.989909375 180.57424 371.989909375 182.65216 371.989909375 183.66304 371.65294937500005 184.81432 370.81054937500005 185.90944 369.209989375 188.0716 366.59854937500006 189.25096 364.324069375 189.25096 362.55502937500006 189.25096 361.03870937500005 188.54896 360.308629375 187.11688 360.08398937500004 186.55528 359.97166937500003 186.02176 359.97166937500003 185.43208 359.97166937500003 182.37136 363.39742937500006 178.97368 367.32862937500005 178.77712"/>
      </g>
    </g>
    <g class="vf-modifiers"/>
  </g>
  <g class="vf-stavenote" id="vf-auto15490">
    <g class="vf-note" pointer-events="bounding-box">
      <g class="vf-notehead" pointer-events="bounding-box">
        <path stroke-width="0.3" fill="#000000" stroke="none" stroke-dasharray="none" d="M385.863029375 184 393.219989375 178.77712C393.332309375 178.77712 393.500789375 178.77712 393.528869375 178.77712 393.528869375 178.77712 393.556949375 178.77712 393.556949375 178.77712 393.556949375 178.77712 393.725429375 178.77712 393.865829375 178.77712 396.39302937499997 178.91752 397.881269375 180.57424 397.881269375 182.65216 397.881269375 183.66304 397.544309375 184.81432 396.701909375 185.90944 395.101349375 188.0716 392.489909375 189.25096 390.215429375 189.25096 388.446389375 189.25096 386.930069375 188.54896 386.199989375 187.11688 385.975349375 186.55528 385.863029375 186.02176 385.863029375 185.43208 385.863029375 182.37136 389.288789375 178.97368 393.219989375 178.77712"/>
      </g>
    </g>
    <g class="vf-modifiers"/>
  </g>
  <g class="vf-stavenote" id="vf-auto15500">
    <g class="vf-note" pointer-events="bounding-box">
      <g class="vf-notehead" pointer-events="bounding-box">
        <path stroke-width="0.3" fill="#000000" stroke="none" stroke-dasharray="none" d="M411.75438937499996 184 419.111349375 178.77712C419.223669375 178.77712 419.392149375 178.77712 419.42022937499996 178.77712 419.42022937499996 178.77712 419.44830937499995 178.77712 419.44830937499995 178.77712 419.44830937499995 178.77712 419.61678937499994 178.77712 419.75718937499994 178.77712 422.28438937499993 178.91752 423.77262937499995 180.57424 423.77262937499995 182.65216 423.77262937499995 183.66304 423.435669375 184.81432 422.593269375 185.90944 420.99270937499995 188.0716 418.381269375 189.25096 416.10678937499995 189.25096 414.337749375 189.25096 412.821429375 188.54896 412.09134937499994 187.11688 411.86670937499997 186.55528 411.75438937499996 186.02176 411.75438937499996 185.43208 411.75438937499996 182.37136 415.180149375 178.97368 419.111349375 178.77712"/>
      </g>
    </g>
    <g class="vf-modifiers"/>
  </g>
  <g class="vf-stavenote" id="vf-auto15510">
    <g class="vf-note" pointer-events="bounding-box">
      <g class="vf-notehead" pointer-events="bounding-box">
        <path stroke-width="0.3" fill="#000000" stroke="none" stroke-dasharray="none" d="M437.645749375 184 445.002709375 178.77712C445.115029375 178.77712 445.283509375 178.77712 445.311589375 178.77712 445.311589375 178.77712 445.33966937499997 178.77712 445.33966937499997 178.77712 445.33966937499997 178.77712 445.50814937499996 178.77712 445.64854937499996 178.77712 448.175749375 178.91752 449.66398937499997 180.57424 449.66398937499997 182.65216 449.66398937499997 183.66304 449.327029375 184.81432 448.484629375 185.90944 446.88406937499997 188.0716 444.27262937499995 189.25096 441.99814937499997 189.25096 440.229109375 189.25096 438.712789375 188.54896 437.98270937499996 187.11688 437.758069375 186.55528 437.645749375 186.02176 437.645749375 185.43208 437.645749375 182.37136 441.071509375 178.97368 445.002709375 178.77712"/>
      </g>
    </g>
    <g class="vf-modifiers"/>
  </g>
  <path stroke-width="1.5" fill="none" stroke="#000000" stroke-dasharray="none" d="M303.710949375 184L303.710949375 149.75"/>
  <path stroke-width="1.5" fill="none" stroke="#000000" stroke-dasharray="none" d="M337.475429375 184L337.475429375 149.75"/>
  <path stroke-width="0.3" fill="#000000" stroke="none" stroke-dasharray="none" d="M302.960949375 149L302.960949375 154 337.725429375 154 337.725429375 149Z"/>
  <path stroke-width="1.5" fill="none" stroke="#000000" stroke-dasharray="none" d="M371.239909375 184L371.239909375 149.75"/>
  <path stroke-width="1.5" fill="none" stroke="#000000" stroke-dasharray="none" d="M397.131269375 184L397.131269375 149.75"/>
  <path stroke-width="1.5" fill="none" stroke="#000000" stroke-dasharray="none" d="M423.02262937499995 184L423.02262937499995 149.75"/>
  <path stroke-width="1.5" fill="none" stroke="#000000" stroke-dasharray="none" d="M448.91398937499997 184L448.91398937499997 149.75"/>
  <path stroke-width="0.3" fill="#000000" stroke="none" stroke-dasharray="none" d="M370.489909375 149L370.489909375 154 449.16398937499997 154 449.16398937499997 149Z"/>
  <path stroke-width="0.3" fill="#000000" stroke="none" stroke-dasharray="none" d="M370.489909375 156.5L370.489909375 161.5 449.16398937499997 161.5 449.16398937499997 156.5Z"/>
  <g>
    <text stroke-width="0.3" fill="#000000" stroke="none" stroke-dasharray="none" font-family="Times New Roman" font-size="20px" font-weight="normal" font-style="normal" x="50" y="192">
      Shaker
    </text>
  </g>
  <g>
    <text stroke-width="0.3" fill="#000000" stroke="none" stroke-dasharray="none" font-family="Times New Roman" font-size="40px" font-weight="normal" font-style="normal" x="523.5" y="82">
      Untitled Score
    </text>
  </g>
</svg>
